<?xml version="1.0" encoding="UTF-8" standalone="no"?>
<!DOCTYPE svg PUBLIC "-//W3C//DTD SVG 1.1//EN"
 "http://www.w3.org/Graphics/SVG/1.1/DTD/svg11.dtd">
<!-- Generated by graphviz version 2.36.0 (20140111.2315)
 -->
<!-- Title: G Pages: 1 -->
<svg width="492pt" height="1046pt"
 viewBox="0.00 0.00 492.00 1046.00" xmlns="http://www.w3.org/2000/svg" xmlns:xlink="http://www.w3.org/1999/xlink">
<g id="graph0" class="graph" transform="scale(1 1) rotate(0) translate(4 1042)">
<title>G</title>
<polygon fill="white" stroke="none" points="-4,4 -4,-1042 488,-1042 488,4 -4,4"/>
<g id="clust1" class="cluster"><title>cluster_Global</title>
<path fill="none" stroke="gray" d="M79,-44C79,-44 464,-44 464,-44 470,-44 476,-50 476,-56 476,-56 476,-1018 476,-1018 476,-1024 470,-1030 464,-1030 464,-1030 79,-1030 79,-1030 73,-1030 67,-1024 67,-1018 67,-1018 67,-56 67,-56 67,-50 73,-44 79,-44"/>
<text text-anchor="middle" x="271.5" y="-1017.2" font-family="Times,serif" font-size="11.00" fill="gray">Global</text>
</g>
<g id="clust2" class="cluster"><title>cluster_\App</title>
<path fill="none" stroke="gray" d="M87,-598C87,-598 442,-598 442,-598 448,-598 454,-604 454,-610 454,-610 454,-990 454,-990 454,-996 448,-1002 442,-1002 442,-1002 87,-1002 87,-1002 81,-1002 75,-996 75,-990 75,-990 75,-610 75,-610 75,-604 81,-598 87,-598"/>
<text text-anchor="middle" x="264.5" y="-989.2" font-family="Times,serif" font-size="11.00" fill="gray">App</text>
</g>
<g id="clust3" class="cluster"><title>cluster_\App\OOProgramming</title>
<path fill="none" stroke="gray" d="M95,-740C95,-740 434,-740 434,-740 440,-740 446,-746 446,-752 446,-752 446,-962 446,-962 446,-968 440,-974 434,-974 434,-974 95,-974 95,-974 89,-974 83,-968 83,-962 83,-962 83,-752 83,-752 83,-746 89,-740 95,-740"/>
<text text-anchor="middle" x="264.5" y="-961.2" font-family="Times,serif" font-size="11.00" fill="gray">OOProgramming</text>
</g>
<g id="clust4" class="cluster"><title>cluster_\App\PHPBasics</title>
<path fill="none" stroke="gray" d="M102,-606C102,-606 427,-606 427,-606 433,-606 439,-612 439,-618 439,-618 439,-720 439,-720 439,-726 433,-732 427,-732 427,-732 102,-732 102,-732 96,-732 90,-726 90,-720 90,-720 90,-618 90,-618 90,-612 96,-606 102,-606"/>
<text text-anchor="middle" x="264.5" y="-719.2" font-family="Times,serif" font-size="11.00" fill="gray">PHPBasics</text>
</g>
<g id="clust5" class="cluster"><title>cluster_\Test</title>
<path fill="none" stroke="gray" d="M322,-52C322,-52 456,-52 456,-52 462,-52 468,-58 468,-64 468,-64 468,-578 468,-578 468,-584 462,-590 456,-590 456,-590 322,-590 322,-590 316,-590 310,-584 310,-578 310,-578 310,-64 310,-64 310,-58 316,-52 322,-52"/>
<text text-anchor="middle" x="389" y="-577.2" font-family="Times,serif" font-size="11.00" fill="gray">Test</text>
</g>
<g id="clust6" class="cluster"><title>cluster_\Test\FunctionsAndArrays</title>
<path fill="none" stroke="gray" d="M337,-490C337,-490 441,-490 441,-490 447,-490 453,-496 453,-502 453,-502 453,-550 453,-550 453,-556 447,-562 441,-562 441,-562 337,-562 337,-562 331,-562 325,-556 325,-550 325,-550 325,-502 325,-502 325,-496 331,-490 337,-490"/>
<text text-anchor="middle" x="389" y="-549.2" font-family="Times,serif" font-size="11.00" fill="gray">FunctionsAndArrays</text>
</g>
<g id="clust7" class="cluster"><title>cluster_\Test\PHPBasics</title>
<path fill="none" stroke="gray" d="M337,-356C337,-356 441,-356 441,-356 447,-356 453,-362 453,-368 453,-368 453,-470 453,-470 453,-476 447,-482 441,-482 441,-482 337,-482 337,-482 331,-482 325,-476 325,-470 325,-470 325,-368 325,-368 325,-362 331,-356 337,-356"/>
<text text-anchor="middle" x="389" y="-469.2" font-family="Times,serif" font-size="11.00" fill="gray">PHPBasics</text>
</g>
<g id="clust8" class="cluster"><title>cluster_\Test\OOProgramming</title>
<path fill="none" stroke="gray" d="M330,-60C330,-60 448,-60 448,-60 454,-60 460,-66 460,-72 460,-72 460,-336 460,-336 460,-342 454,-348 448,-348 448,-348 330,-348 330,-348 324,-348 318,-342 318,-336 318,-336 318,-72 318,-72 318,-66 324,-60 330,-60"/>
<text text-anchor="middle" x="389" y="-335.2" font-family="Times,serif" font-size="11.00" fill="gray">OOProgramming</text>
</g>
<!-- \\App\\OOProgramming\\OODaughter -->
<g id="node1" class="node"><title>\\App\\OOProgramming\\OODaughter</title>
<polygon fill="none" stroke="black" points="431,-946 347,-946 347,-910 431,-910 431,-946"/>
<text text-anchor="middle" x="389" y="-925.2" font-family="Courier,monospace" font-size="11.00">OODaughter</text>
</g>
<!-- \\App\\OOProgramming\\OOMother -->
<g id="node5" class="node"><title>\\App\\OOProgramming\\OOMother</title>
<polygon fill="none" stroke="black" points="162.5,-946 91.5,-946 91.5,-910 162.5,-910 162.5,-946"/>
<text text-anchor="middle" x="127" y="-925.2" font-family="Courier,monospace" font-size="11.00">OOMother</text>
</g>
<!-- \\App\\OOProgramming\\OODaughter&#45;&gt;\\App\\OOProgramming\\OOMother -->
<g id="edge1" class="edge"><title>\\App\\OOProgramming\\OODaughter&#45;&gt;\\App\\OOProgramming\\OOMother</title>
<path fill="none" stroke="black" d="M346.802,-928C299.445,-928 221.971,-928 173.049,-928"/>
<polygon fill="none" stroke="black" points="172.764,-924.5 162.764,-928 172.764,-931.5 172.764,-924.5"/>
</g>
<!-- \\App\\OOProgramming\\Reflecting -->
<g id="node2" class="node"><title>\\App\\OOProgramming\\Reflecting</title>
<polygon fill="none" stroke="black" points="431,-892 347,-892 347,-856 431,-856 431,-892"/>
<text text-anchor="middle" x="389" y="-871.2" font-family="Courier,monospace" font-size="11.00">Reflecting</text>
</g>
<!-- \\App\\OOProgramming\\MagicMethods -->
<g id="node3" class="node"><title>\\App\\OOProgramming\\MagicMethods</title>
<polygon fill="none" stroke="black" points="438,-838 340,-838 340,-802 438,-802 438,-838"/>
<text text-anchor="middle" x="389" y="-817.2" font-family="Courier,monospace" font-size="11.00">MagicMethods</text>
</g>
<!-- \\App\\OOProgramming\\Closures -->
<g id="node4" class="node"><title>\\App\\OOProgramming\\Closures</title>
<polygon fill="none" stroke="black" points="424.5,-784 353.5,-784 353.5,-748 424.5,-748 424.5,-784"/>
<text text-anchor="middle" x="389" y="-763.2" font-family="Courier,monospace" font-size="11.00">Closures</text>
</g>
<!-- \\App\\PHPBasics\\Mother -->
<g id="node6" class="node"><title>\\App\\PHPBasics\\Mother</title>
<polygon fill="none" stroke="black" points="155.5,-704 98.5,-704 98.5,-668 155.5,-668 155.5,-704"/>
<text text-anchor="middle" x="127" y="-683.2" font-family="Courier,monospace" font-size="11.00">Mother</text>
</g>
<!-- \\App\\PHPBasics\\Daughter -->
<g id="node7" class="node"><title>\\App\\PHPBasics\\Daughter</title>
<polygon fill="none" stroke="black" points="424.5,-704 353.5,-704 353.5,-668 424.5,-668 424.5,-704"/>
<text text-anchor="middle" x="389" y="-683.2" font-family="Courier,monospace" font-size="11.00">Daughter</text>
</g>
<!-- \\App\\PHPBasics\\Daughter&#45;&gt;\\App\\PHPBasics\\Mother -->
<g id="edge7" class="edge"><title>\\App\\PHPBasics\\Daughter&#45;&gt;\\App\\PHPBasics\\Mother</title>
<path fill="none" stroke="black" d="M353.474,-686C304.726,-686 216.061,-686 165.664,-686"/>
<polygon fill="none" stroke="black" points="165.519,-682.5 155.519,-686 165.519,-689.5 165.519,-682.5"/>
</g>
<!-- \\App\\PHPBasics\\BasicStuff -->
<g id="node8" class="node"><title>\\App\\PHPBasics\\BasicStuff</title>
<polygon fill="none" stroke="black" points="431,-650 347,-650 347,-614 431,-614 431,-650"/>
<text text-anchor="middle" x="389" y="-629.2" font-family="Courier,monospace" font-size="11.00">BasicStuff</text>
</g>
<!-- \\Test\\FunctionsAndArrays\\ArrayStuffTest -->
<g id="node9" class="node"><title>\\Test\\FunctionsAndArrays\\ArrayStuffTest</title>
<polygon fill="none" stroke="black" points="444.5,-534 333.5,-534 333.5,-498 444.5,-498 444.5,-534"/>
<text text-anchor="middle" x="389" y="-513.2" font-family="Courier,monospace" font-size="11.00">ArrayStuffTest</text>
</g>
<!-- \\PHPUnit_Framework_TestCase -->
<g id="node17" class="node"><title>\\PHPUnit_Framework_TestCase</title>
<ellipse fill="none" stroke="black" cx="127" cy="-18" rx="126.978" ry="18"/>
<text text-anchor="middle" x="127" y="-14.3" font-family="Times,serif" font-size="14.00" fill="gray">\PHPUnit_Framework_TestCase</text>
</g>
<!-- \\Test\\FunctionsAndArrays\\ArrayStuffTest&#45;&gt;\\PHPUnit_Framework_TestCase -->
<g id="edge2" class="edge"><title>\\Test\\FunctionsAndArrays\\ArrayStuffTest&#45;&gt;\\PHPUnit_Framework_TestCase</title>
<path fill="none" stroke="black" d="M333.288,-501.747C324.742,-497.706 316.578,-492.554 310,-486 180.825,-357.304 141.237,-126.492 131.076,-46.3416"/>
<polygon fill="none" stroke="black" points="134.507,-45.5651 129.831,-36.0582 127.558,-46.4064 134.507,-45.5651"/>
</g>
<!-- \\Test\\PHPBasics\\BasicStuffTest -->
<g id="node10" class="node"><title>\\Test\\PHPBasics\\BasicStuffTest</title>
<polygon fill="none" stroke="black" points="444.5,-454 333.5,-454 333.5,-418 444.5,-418 444.5,-454"/>
<text text-anchor="middle" x="389" y="-433.2" font-family="Courier,monospace" font-size="11.00">BasicStuffTest</text>
</g>
<!-- \\Test\\PHPBasics\\BasicStuffTest&#45;&gt;\\PHPUnit_Framework_TestCase -->
<g id="edge3" class="edge"><title>\\Test\\PHPBasics\\BasicStuffTest&#45;&gt;\\PHPUnit_Framework_TestCase</title>
<path fill="none" stroke="black" d="M333.274,-423.414C324.829,-419.755 316.702,-415.049 310,-409 196.063,-306.171 147.901,-117.337 133.229,-46.15"/>
<polygon fill="none" stroke="black" points="136.622,-45.2649 131.23,-36.1445 129.757,-46.6365 136.622,-45.2649"/>
</g>
<!-- \\Test\\PHPBasics\\DaughterTest -->
<g id="node11" class="node"><title>\\Test\\PHPBasics\\DaughterTest</title>
<polygon fill="none" stroke="black" points="438,-400 340,-400 340,-364 438,-364 438,-400"/>
<text text-anchor="middle" x="389" y="-379.2" font-family="Courier,monospace" font-size="11.00">DaughterTest</text>
</g>
<!-- \\Test\\PHPBasics\\DaughterTest&#45;&gt;\\PHPUnit_Framework_TestCase -->
<g id="edge9" class="edge"><title>\\Test\\PHPBasics\\DaughterTest&#45;&gt;\\PHPUnit_Framework_TestCase</title>
<path fill="none" stroke="black" d="M339.656,-369.475C329.078,-365.156 318.512,-359.458 310,-352 210.258,-264.604 155.005,-108.791 135.82,-45.6821"/>
<polygon fill="none" stroke="black" points="139.155,-44.6191 132.95,-36.0319 132.446,-46.6148 139.155,-44.6191"/>
</g>
<!-- \\Test\\OOProgramming\\ClosuresTest -->
<g id="node12" class="node"><title>\\Test\\OOProgramming\\ClosuresTest</title>
<polygon fill="none" stroke="black" points="438,-320 340,-320 340,-284 438,-284 438,-320"/>
<text text-anchor="middle" x="389" y="-299.2" font-family="Courier,monospace" font-size="11.00">ClosuresTest</text>
</g>
<!-- \\Test\\OOProgramming\\ClosuresTest&#45;&gt;\\PHPUnit_Framework_TestCase -->
<g id="edge4" class="edge"><title>\\Test\\OOProgramming\\ClosuresTest&#45;&gt;\\PHPUnit_Framework_TestCase</title>
<path fill="none" stroke="black" d="M339.868,-290.574C329.397,-286.706 318.824,-281.624 310,-275 225.586,-211.634 164.985,-97.6809 140.288,-45.4767"/>
<polygon fill="none" stroke="black" points="143.355,-43.7727 135.963,-36.1826 137.008,-46.7258 143.355,-43.7727"/>
</g>
<!-- \\Test\\OOProgramming\\OODaughterTest -->
<g id="node13" class="node"><title>\\Test\\OOProgramming\\OODaughterTest</title>
<polygon fill="none" stroke="black" points="444.5,-266 333.5,-266 333.5,-230 444.5,-230 444.5,-266"/>
<text text-anchor="middle" x="389" y="-245.2" font-family="Courier,monospace" font-size="11.00">OODaughterTest</text>
</g>
<!-- \\Test\\OOProgramming\\OODaughterTest&#45;&gt;\\PHPUnit_Framework_TestCase -->
<g id="edge5" class="edge"><title>\\Test\\OOProgramming\\OODaughterTest&#45;&gt;\\PHPUnit_Framework_TestCase</title>
<path fill="none" stroke="black" d="M333.438,-233.123C325.25,-229.77 317.161,-225.759 310,-221 236.761,-172.326 173.97,-87.3846 145.035,-44.4516"/>
<polygon fill="none" stroke="black" points="147.836,-42.3431 139.383,-35.9559 142.008,-46.2204 147.836,-42.3431"/>
</g>
<!-- \\Test\\OOProgramming\\MagicMethodsTest -->
<g id="node14" class="node"><title>\\Test\\OOProgramming\\MagicMethodsTest</title>
<polygon fill="none" stroke="black" points="451.5,-212 326.5,-212 326.5,-176 451.5,-176 451.5,-212"/>
<text text-anchor="middle" x="389" y="-191.2" font-family="Courier,monospace" font-size="11.00">MagicMethodsTest</text>
</g>
<!-- \\Test\\OOProgramming\\MagicMethodsTest&#45;&gt;\\PHPUnit_Framework_TestCase -->
<g id="edge6" class="edge"><title>\\Test\\OOProgramming\\MagicMethodsTest&#45;&gt;\\PHPUnit_Framework_TestCase</title>
<path fill="none" stroke="black" d="M328.678,-175.966C322.229,-173.275 315.879,-170.286 310,-167 247.959,-132.326 186.153,-75.9285 152.939,-43.3727"/>
<polygon fill="none" stroke="black" points="155.086,-40.5734 145.517,-36.0261 150.162,-45.5484 155.086,-40.5734"/>
</g>
<!-- \\Test\\OOProgramming\\OOMotherTest -->
<g id="node15" class="node"><title>\\Test\\OOProgramming\\OOMotherTest</title>
<polygon fill="none" stroke="black" points="438,-158 340,-158 340,-122 438,-122 438,-158"/>
<text text-anchor="middle" x="389" y="-137.2" font-family="Courier,monospace" font-size="11.00">OOMotherTest</text>
</g>
<!-- \\Test\\OOProgramming\\OOMotherTest&#45;&gt;\\PHPUnit_Framework_TestCase -->
<g id="edge8" class="edge"><title>\\Test\\OOProgramming\\OOMotherTest&#45;&gt;\\PHPUnit_Framework_TestCase</title>
<path fill="none" stroke="black" d="M339.722,-124.538C329.789,-121.009 319.474,-117.086 310,-113 259.311,-91.14 203.342,-60.9596 167.033,-40.527"/>
<polygon fill="none" stroke="black" points="168.668,-37.4307 158.241,-35.5532 165.221,-43.5234 168.668,-37.4307"/>
</g>
<!-- \\Test\\OOProgramming\\ReflectingTest -->
<g id="node16" class="node"><title>\\Test\\OOProgramming\\ReflectingTest</title>
<polygon fill="none" stroke="black" points="444.5,-104 333.5,-104 333.5,-68 444.5,-68 444.5,-104"/>
<text text-anchor="middle" x="389" y="-83.2" font-family="Courier,monospace" font-size="11.00">ReflectingTest</text>
</g>
<!-- \\Test\\OOProgramming\\ReflectingTest&#45;&gt;\\PHPUnit_Framework_TestCase -->
<g id="edge10" class="edge"><title>\\Test\\OOProgramming\\ReflectingTest&#45;&gt;\\PHPUnit_Framework_TestCase</title>
<path fill="none" stroke="black" d="M333.495,-71.745C294.124,-61.4478 240.614,-47.4529 198.068,-36.3255"/>
<polygon fill="none" stroke="black" points="198.897,-32.9248 188.337,-33.7805 197.126,-39.697 198.897,-32.9248"/>
</g>
</g>
</svg>
