<?xml version="1.0" encoding="UTF-8" standalone="no"?>
<!DOCTYPE svg PUBLIC "-//W3C//DTD SVG 1.1//EN"
 "http://www.w3.org/Graphics/SVG/1.1/DTD/svg11.dtd">
<!-- Generated by graphviz version 2.36.0 (20140111.2315)
 -->
<!-- Title: G Pages: 1 -->
<svg width="518pt" height="1422pt"
 viewBox="0.00 0.00 518.00 1422.00" xmlns="http://www.w3.org/2000/svg" xmlns:xlink="http://www.w3.org/1999/xlink">
<g id="graph0" class="graph" transform="scale(1 1) rotate(0) translate(4 1418)">
<title>G</title>
<polygon fill="white" stroke="none" points="-4,4 -4,-1418 514,-1418 514,4 -4,4"/>
<g id="clust1" class="cluster"><title>cluster_Global</title>
<path fill="none" stroke="gray" d="M79,-44C79,-44 490,-44 490,-44 496,-44 502,-50 502,-56 502,-56 502,-1394 502,-1394 502,-1400 496,-1406 490,-1406 490,-1406 79,-1406 79,-1406 73,-1406 67,-1400 67,-1394 67,-1394 67,-56 67,-56 67,-50 73,-44 79,-44"/>
<text text-anchor="middle" x="284.5" y="-1393.2" font-family="Times,serif" font-size="11.00" fill="gray">Global</text>
</g>
<g id="clust2" class="cluster"><title>cluster_\App</title>
<path fill="none" stroke="gray" d="M87,-786C87,-786 469,-786 469,-786 475,-786 481,-792 481,-798 481,-798 481,-1366 481,-1366 481,-1372 475,-1378 469,-1378 469,-1378 87,-1378 87,-1378 81,-1378 75,-1372 75,-1366 75,-1366 75,-798 75,-798 75,-792 81,-786 87,-786"/>
<text text-anchor="middle" x="278" y="-1365.2" font-family="Times,serif" font-size="11.00" fill="gray">App</text>
</g>
<g id="clust3" class="cluster"><title>cluster_\App\OOProgramming</title>
<path fill="none" stroke="gray" d="M95,-1062C95,-1062 454,-1062 454,-1062 460,-1062 466,-1068 466,-1074 466,-1074 466,-1338 466,-1338 466,-1344 460,-1350 454,-1350 454,-1350 95,-1350 95,-1350 89,-1350 83,-1344 83,-1338 83,-1338 83,-1074 83,-1074 83,-1068 89,-1062 95,-1062"/>
<text text-anchor="middle" x="274.5" y="-1337.2" font-family="Times,serif" font-size="11.00" fill="gray">OOProgramming</text>
</g>
<g id="clust4" class="cluster"><title>cluster_\App\InputOutput</title>
<path fill="none" stroke="gray" d="M343,-928C343,-928 461,-928 461,-928 467,-928 473,-934 473,-940 473,-940 473,-1042 473,-1042 473,-1048 467,-1054 461,-1054 461,-1054 343,-1054 343,-1054 337,-1054 331,-1048 331,-1042 331,-1042 331,-940 331,-940 331,-934 337,-928 343,-928"/>
<text text-anchor="middle" x="402" y="-1041.2" font-family="Times,serif" font-size="11.00" fill="gray">InputOutput</text>
</g>
<g id="clust5" class="cluster"><title>cluster_\App\PHPBasics</title>
<path fill="none" stroke="gray" d="M102,-794C102,-794 440,-794 440,-794 446,-794 452,-800 452,-806 452,-806 452,-908 452,-908 452,-914 446,-920 440,-920 440,-920 102,-920 102,-920 96,-920 90,-914 90,-908 90,-908 90,-806 90,-806 90,-800 96,-794 102,-794"/>
<text text-anchor="middle" x="271" y="-907.2" font-family="Times,serif" font-size="11.00" fill="gray">PHPBasics</text>
</g>
<g id="clust6" class="cluster"><title>cluster_\Test</title>
<path fill="none" stroke="gray" d="M322,-52C322,-52 482,-52 482,-52 488,-52 494,-58 494,-64 494,-64 494,-766 494,-766 494,-772 488,-778 482,-778 482,-778 322,-778 322,-778 316,-778 310,-772 310,-766 310,-766 310,-64 310,-64 310,-58 316,-52 322,-52"/>
<text text-anchor="middle" x="402" y="-765.2" font-family="Times,serif" font-size="11.00" fill="gray">Test</text>
</g>
<g id="clust7" class="cluster"><title>cluster_\Test\InputOutput</title>
<path fill="none" stroke="gray" d="M330,-624C330,-624 474,-624 474,-624 480,-624 486,-630 486,-636 486,-636 486,-738 486,-738 486,-744 480,-750 474,-750 474,-750 330,-750 330,-750 324,-750 318,-744 318,-738 318,-738 318,-636 318,-636 318,-630 324,-624 330,-624"/>
<text text-anchor="middle" x="402" y="-737.2" font-family="Times,serif" font-size="11.00" fill="gray">InputOutput</text>
</g>
<g id="clust8" class="cluster"><title>cluster_\Test\PHPBasics</title>
<path fill="none" stroke="gray" d="M350,-490C350,-490 454,-490 454,-490 460,-490 466,-496 466,-502 466,-502 466,-604 466,-604 466,-610 460,-616 454,-616 454,-616 350,-616 350,-616 344,-616 338,-610 338,-604 338,-604 338,-502 338,-502 338,-496 344,-490 350,-490"/>
<text text-anchor="middle" x="402" y="-603.2" font-family="Times,serif" font-size="11.00" fill="gray">PHPBasics</text>
</g>
<g id="clust9" class="cluster"><title>cluster_\Test\OOProgramming</title>
<path fill="none" stroke="gray" d="M337,-140C337,-140 467,-140 467,-140 473,-140 479,-146 479,-152 479,-152 479,-470 479,-470 479,-476 473,-482 467,-482 467,-482 337,-482 337,-482 331,-482 325,-476 325,-470 325,-470 325,-152 325,-152 325,-146 331,-140 337,-140"/>
<text text-anchor="middle" x="402" y="-469.2" font-family="Times,serif" font-size="11.00" fill="gray">OOProgramming</text>
</g>
<g id="clust10" class="cluster"><title>cluster_\Test\Arrays</title>
<path fill="none" stroke="gray" d="M364,-60C364,-60 440,-60 440,-60 446,-60 452,-66 452,-72 452,-72 452,-120 452,-120 452,-126 446,-132 440,-132 440,-132 364,-132 364,-132 358,-132 352,-126 352,-120 352,-120 352,-72 352,-72 352,-66 358,-60 364,-60"/>
<text text-anchor="middle" x="402" y="-119.2" font-family="Times,serif" font-size="11.00" fill="gray">Arrays</text>
</g>
<!-- \\App\\OOProgramming\\OODaughter -->
<g id="node1" class="node"><title>\\App\\OOProgramming\\OODaughter</title>
<polygon fill="none" stroke="black" points="444,-1322 360,-1322 360,-1286 444,-1286 444,-1322"/>
<text text-anchor="middle" x="402" y="-1301.2" font-family="Courier,monospace" font-size="11.00">OODaughter</text>
</g>
<!-- \\App\\OOProgramming\\OOMother -->
<g id="node6" class="node"><title>\\App\\OOProgramming\\OOMother</title>
<polygon fill="none" stroke="black" points="162.5,-1322 91.5,-1322 91.5,-1286 162.5,-1286 162.5,-1322"/>
<text text-anchor="middle" x="127" y="-1301.2" font-family="Courier,monospace" font-size="11.00">OOMother</text>
</g>
<!-- \\App\\OOProgramming\\OODaughter&#45;&gt;\\App\\OOProgramming\\OOMother -->
<g id="edge1" class="edge"><title>\\App\\OOProgramming\\OODaughter&#45;&gt;\\App\\OOProgramming\\OOMother</title>
<path fill="none" stroke="black" d="M359.834,-1304C309.527,-1304 224.713,-1304 172.806,-1304"/>
<polygon fill="none" stroke="black" points="172.569,-1300.5 162.569,-1304 172.569,-1307.5 172.569,-1300.5"/>
</g>
<!-- \\App\\OOProgramming\\Reflecting -->
<g id="node2" class="node"><title>\\App\\OOProgramming\\Reflecting</title>
<polygon fill="none" stroke="black" points="444,-1268 360,-1268 360,-1232 444,-1232 444,-1268"/>
<text text-anchor="middle" x="402" y="-1247.2" font-family="Courier,monospace" font-size="11.00">Reflecting</text>
</g>
<!-- \\App\\OOProgramming\\MagicMethods -->
<g id="node3" class="node"><title>\\App\\OOProgramming\\MagicMethods</title>
<polygon fill="none" stroke="black" points="451,-1214 353,-1214 353,-1178 451,-1178 451,-1214"/>
<text text-anchor="middle" x="402" y="-1193.2" font-family="Courier,monospace" font-size="11.00">MagicMethods</text>
</g>
<!-- \\App\\OOProgramming\\ClosuresToBind -->
<g id="node4" class="node"><title>\\App\\OOProgramming\\ClosuresToBind</title>
<polygon fill="none" stroke="black" points="457.5,-1160 346.5,-1160 346.5,-1124 457.5,-1124 457.5,-1160"/>
<text text-anchor="middle" x="402" y="-1139.2" font-family="Courier,monospace" font-size="11.00">ClosuresToBind</text>
</g>
<!-- \\App\\OOProgramming\\Closures -->
<g id="node5" class="node"><title>\\App\\OOProgramming\\Closures</title>
<polygon fill="none" stroke="black" points="437.5,-1106 366.5,-1106 366.5,-1070 437.5,-1070 437.5,-1106"/>
<text text-anchor="middle" x="402" y="-1085.2" font-family="Courier,monospace" font-size="11.00">Closures</text>
</g>
<!-- \\App\\InputOutput\\FileManipulation -->
<g id="node7" class="node"><title>\\App\\InputOutput\\FileManipulation</title>
<polygon fill="none" stroke="black" points="464.5,-1026 339.5,-1026 339.5,-990 464.5,-990 464.5,-1026"/>
<text text-anchor="middle" x="402" y="-1005.2" font-family="Courier,monospace" font-size="11.00">FileManipulation</text>
</g>
<!-- \\App\\InputOutput\\ResourceStream -->
<g id="node8" class="node"><title>\\App\\InputOutput\\ResourceStream</title>
<polygon fill="none" stroke="black" points="457.5,-972 346.5,-972 346.5,-936 457.5,-936 457.5,-972"/>
<text text-anchor="middle" x="402" y="-951.2" font-family="Courier,monospace" font-size="11.00">ResourceStream</text>
</g>
<!-- \\App\\PHPBasics\\Mother -->
<g id="node9" class="node"><title>\\App\\PHPBasics\\Mother</title>
<polygon fill="none" stroke="black" points="155.5,-892 98.5,-892 98.5,-856 155.5,-856 155.5,-892"/>
<text text-anchor="middle" x="127" y="-871.2" font-family="Courier,monospace" font-size="11.00">Mother</text>
</g>
<!-- \\App\\PHPBasics\\Daughter -->
<g id="node10" class="node"><title>\\App\\PHPBasics\\Daughter</title>
<polygon fill="none" stroke="black" points="437.5,-892 366.5,-892 366.5,-856 437.5,-856 437.5,-892"/>
<text text-anchor="middle" x="402" y="-871.2" font-family="Courier,monospace" font-size="11.00">Daughter</text>
</g>
<!-- \\App\\PHPBasics\\Daughter&#45;&gt;\\App\\PHPBasics\\Mother -->
<g id="edge9" class="edge"><title>\\App\\PHPBasics\\Daughter&#45;&gt;\\App\\PHPBasics\\Mother</title>
<path fill="none" stroke="black" d="M366.424,-874C315.041,-874 218.891,-874 165.738,-874"/>
<polygon fill="none" stroke="black" points="165.707,-870.5 155.707,-874 165.707,-877.5 165.707,-870.5"/>
</g>
<!-- \\App\\PHPBasics\\BasicStuff -->
<g id="node11" class="node"><title>\\App\\PHPBasics\\BasicStuff</title>
<polygon fill="none" stroke="black" points="444,-838 360,-838 360,-802 444,-802 444,-838"/>
<text text-anchor="middle" x="402" y="-817.2" font-family="Courier,monospace" font-size="11.00">BasicStuff</text>
</g>
<!-- \\Test\\InputOutput\\FileManipulationTest -->
<g id="node12" class="node"><title>\\Test\\InputOutput\\FileManipulationTest</title>
<polygon fill="none" stroke="black" points="478,-722 326,-722 326,-686 478,-686 478,-722"/>
<text text-anchor="middle" x="402" y="-701.2" font-family="Courier,monospace" font-size="11.00">FileManipulationTest</text>
</g>
<!-- \\PHPUnit_Framework_TestCase -->
<g id="node23" class="node"><title>\\PHPUnit_Framework_TestCase</title>
<ellipse fill="none" stroke="black" cx="127" cy="-18" rx="126.978" ry="18"/>
<text text-anchor="middle" x="127" y="-14.3" font-family="Times,serif" font-size="14.00" fill="gray">\PHPUnit_Framework_TestCase</text>
</g>
<!-- \\Test\\InputOutput\\FileManipulationTest&#45;&gt;\\PHPUnit_Framework_TestCase -->
<g id="edge2" class="edge"><title>\\Test\\InputOutput\\FileManipulationTest&#45;&gt;\\PHPUnit_Framework_TestCase</title>
<path fill="none" stroke="black" d="M325.831,-688.82C320.012,-685.599 314.617,-681.705 310,-677 218.094,-583.334 149.173,-159.83 132.097,-46.1553"/>
<polygon fill="none" stroke="black" points="135.541,-45.5191 130.608,-36.1431 128.618,-46.5494 135.541,-45.5191"/>
</g>
<!-- \\Test\\InputOutput\\ResourceStreamTest -->
<g id="node13" class="node"><title>\\Test\\InputOutput\\ResourceStreamTest</title>
<polygon fill="none" stroke="black" points="471,-668 333,-668 333,-632 471,-632 471,-668"/>
<text text-anchor="middle" x="402" y="-647.2" font-family="Courier,monospace" font-size="11.00">ResourceStreamTest</text>
</g>
<!-- \\Test\\InputOutput\\ResourceStreamTest&#45;&gt;\\PHPUnit_Framework_TestCase -->
<g id="edge5" class="edge"><title>\\Test\\InputOutput\\ResourceStreamTest&#45;&gt;\\PHPUnit_Framework_TestCase</title>
<path fill="none" stroke="black" d="M332.611,-635.672C324.232,-631.669 316.389,-626.549 310,-620 146.093,-451.966 129.126,-141.596 127.896,-46.4631"/>
<polygon fill="none" stroke="black" points="131.394,-46.1699 127.816,-36.1976 124.395,-46.2247 131.394,-46.1699"/>
</g>
<!-- \\Test\\PHPBasics\\BasicStuffTest -->
<g id="node14" class="node"><title>\\Test\\PHPBasics\\BasicStuffTest</title>
<polygon fill="none" stroke="black" points="457.5,-588 346.5,-588 346.5,-552 457.5,-552 457.5,-588"/>
<text text-anchor="middle" x="402" y="-567.2" font-family="Courier,monospace" font-size="11.00">BasicStuffTest</text>
</g>
<!-- \\Test\\PHPBasics\\BasicStuffTest&#45;&gt;\\PHPUnit_Framework_TestCase -->
<g id="edge3" class="edge"><title>\\Test\\PHPBasics\\BasicStuffTest&#45;&gt;\\PHPUnit_Framework_TestCase</title>
<path fill="none" stroke="black" d="M346.042,-562.621C332.93,-558.611 319.888,-552.45 310,-543 162.031,-401.582 134.318,-133.945 129.166,-46.4562"/>
<polygon fill="none" stroke="black" points="132.649,-46.0423 128.621,-36.243 125.659,-46.4153 132.649,-46.0423"/>
</g>
<!-- \\Test\\PHPBasics\\DaughterTest -->
<g id="node15" class="node"><title>\\Test\\PHPBasics\\DaughterTest</title>
<polygon fill="none" stroke="black" points="451,-534 353,-534 353,-498 451,-498 451,-534"/>
<text text-anchor="middle" x="402" y="-513.2" font-family="Courier,monospace" font-size="11.00">DaughterTest</text>
</g>
<!-- \\Test\\PHPBasics\\DaughterTest&#45;&gt;\\PHPUnit_Framework_TestCase -->
<g id="edge12" class="edge"><title>\\Test\\PHPBasics\\DaughterTest&#45;&gt;\\PHPUnit_Framework_TestCase</title>
<path fill="none" stroke="black" d="M352.84,-508.511C337.605,-504.104 321.705,-497.107 310,-486 177.728,-360.489 140.104,-127.658 130.765,-46.6614"/>
<polygon fill="none" stroke="black" points="134.194,-45.8272 129.628,-36.2672 127.236,-46.5885 134.194,-45.8272"/>
</g>
<!-- \\Test\\OOProgramming\\ClosuresTest -->
<g id="node16" class="node"><title>\\Test\\OOProgramming\\ClosuresTest</title>
<polygon fill="none" stroke="black" points="451,-454 353,-454 353,-418 451,-418 451,-454"/>
<text text-anchor="middle" x="402" y="-433.2" font-family="Courier,monospace" font-size="11.00">ClosuresTest</text>
</g>
<!-- \\Test\\OOProgramming\\ClosuresTest&#45;&gt;\\PHPUnit_Framework_TestCase -->
<g id="edge4" class="edge"><title>\\Test\\OOProgramming\\ClosuresTest&#45;&gt;\\PHPUnit_Framework_TestCase</title>
<path fill="none" stroke="black" d="M352.831,-429.653C337.771,-425.714 321.979,-419.334 310,-409 193.787,-308.75 146.994,-118.365 132.958,-46.4573"/>
<polygon fill="none" stroke="black" points="136.344,-45.5256 131.05,-36.3481 129.465,-46.8237 136.344,-45.5256"/>
</g>
<!-- \\Test\\OOProgramming\\OODaughterTest -->
<g id="node17" class="node"><title>\\Test\\OOProgramming\\OODaughterTest</title>
<polygon fill="none" stroke="black" points="457.5,-400 346.5,-400 346.5,-364 457.5,-364 457.5,-400"/>
<text text-anchor="middle" x="402" y="-379.2" font-family="Courier,monospace" font-size="11.00">OODaughterTest</text>
</g>
<!-- \\Test\\OOProgramming\\OODaughterTest&#45;&gt;\\PHPUnit_Framework_TestCase -->
<g id="edge6" class="edge"><title>\\Test\\OOProgramming\\OODaughterTest&#45;&gt;\\PHPUnit_Framework_TestCase</title>
<path fill="none" stroke="black" d="M346.093,-373.195C333.277,-369.207 320.362,-363.414 310,-355 206.094,-270.627 153.065,-110.581 135.147,-46.0319"/>
<polygon fill="none" stroke="black" points="138.468,-44.9075 132.478,-36.1689 131.711,-46.736 138.468,-44.9075"/>
</g>
<!-- \\Test\\OOProgramming\\MagicMethodsTest -->
<g id="node18" class="node"><title>\\Test\\OOProgramming\\MagicMethodsTest</title>
<polygon fill="none" stroke="black" points="464.5,-346 339.5,-346 339.5,-310 464.5,-310 464.5,-346"/>
<text text-anchor="middle" x="402" y="-325.2" font-family="Courier,monospace" font-size="11.00">MagicMethodsTest</text>
</g>
<!-- \\Test\\OOProgramming\\MagicMethodsTest&#45;&gt;\\PHPUnit_Framework_TestCase -->
<g id="edge7" class="edge"><title>\\Test\\OOProgramming\\MagicMethodsTest&#45;&gt;\\PHPUnit_Framework_TestCase</title>
<path fill="none" stroke="black" d="M339.402,-316.248C328.961,-312.486 318.699,-307.529 310,-301 218.107,-232.029 159.983,-101.982 137.983,-45.4255"/>
<polygon fill="none" stroke="black" points="141.246,-44.1583 134.411,-36.0623 134.705,-46.6531 141.246,-44.1583"/>
</g>
<!-- \\Test\\OOProgramming\\ClosuresToBindTest -->
<g id="node19" class="node"><title>\\Test\\OOProgramming\\ClosuresToBindTest</title>
<polygon fill="none" stroke="black" points="471,-292 333,-292 333,-256 471,-256 471,-292"/>
<text text-anchor="middle" x="402" y="-271.2" font-family="Courier,monospace" font-size="11.00">ClosuresToBindTest</text>
</g>
<!-- \\Test\\OOProgramming\\ClosuresToBindTest&#45;&gt;\\PHPUnit_Framework_TestCase -->
<g id="edge10" class="edge"><title>\\Test\\OOProgramming\\ClosuresToBindTest&#45;&gt;\\PHPUnit_Framework_TestCase</title>
<path fill="none" stroke="black" d="M332.796,-258.835C324.767,-255.603 316.966,-251.703 310,-247 229.899,-192.92 168.31,-92.6891 141.977,-44.8126"/>
<polygon fill="none" stroke="black" points="145.026,-43.0913 137.186,-35.9645 138.87,-46.4246 145.026,-43.0913"/>
</g>
<!-- \\Test\\OOProgramming\\OOMotherTest -->
<g id="node20" class="node"><title>\\Test\\OOProgramming\\OOMotherTest</title>
<polygon fill="none" stroke="black" points="451,-238 353,-238 353,-202 451,-202 451,-238"/>
<text text-anchor="middle" x="402" y="-217.2" font-family="Courier,monospace" font-size="11.00">OOMotherTest</text>
</g>
<!-- \\Test\\OOProgramming\\OOMotherTest&#45;&gt;\\PHPUnit_Framework_TestCase -->
<g id="edge11" class="edge"><title>\\Test\\OOProgramming\\OOMotherTest&#45;&gt;\\PHPUnit_Framework_TestCase</title>
<path fill="none" stroke="black" d="M352.943,-210.345C338.541,-206.259 323.103,-200.627 310,-193 241.496,-153.128 178.963,-82.271 148.144,-44.0946"/>
<polygon fill="none" stroke="black" points="150.677,-41.658 141.707,-36.021 145.204,-46.0219 150.677,-41.658"/>
</g>
<!-- \\Test\\OOProgramming\\ReflectingTest -->
<g id="node21" class="node"><title>\\Test\\OOProgramming\\ReflectingTest</title>
<polygon fill="none" stroke="black" points="457.5,-184 346.5,-184 346.5,-148 457.5,-148 457.5,-184"/>
<text text-anchor="middle" x="402" y="-163.2" font-family="Courier,monospace" font-size="11.00">ReflectingTest</text>
</g>
<!-- \\Test\\OOProgramming\\ReflectingTest&#45;&gt;\\PHPUnit_Framework_TestCase -->
<g id="edge13" class="edge"><title>\\Test\\OOProgramming\\ReflectingTest&#45;&gt;\\PHPUnit_Framework_TestCase</title>
<path fill="none" stroke="black" d="M346.209,-150.465C334.053,-146.326 321.401,-141.463 310,-136 253.961,-109.148 194.546,-67.8846 159.391,-41.9454"/>
<polygon fill="none" stroke="black" points="161.106,-38.8587 150.993,-35.6989 156.928,-44.4754 161.106,-38.8587"/>
</g>
<!-- \\Test\\Arrays\\ArraysTest -->
<g id="node22" class="node"><title>\\Test\\Arrays\\ArraysTest</title>
<polygon fill="none" stroke="black" points="444,-104 360,-104 360,-68 444,-68 444,-104"/>
<text text-anchor="middle" x="402" y="-83.2" font-family="Courier,monospace" font-size="11.00">ArraysTest</text>
</g>
<!-- \\Test\\Arrays\\ArraysTest&#45;&gt;\\PHPUnit_Framework_TestCase -->
<g id="edge8" class="edge"><title>\\Test\\Arrays\\ArraysTest&#45;&gt;\\PHPUnit_Framework_TestCase</title>
<path fill="none" stroke="black" d="M359.834,-75.7461C317.73,-65.2589 251.458,-48.7514 200.534,-36.067"/>
<polygon fill="none" stroke="black" points="201.115,-32.6048 190.565,-33.584 199.423,-39.3973 201.115,-32.6048"/>
</g>
</g>
</svg>
