<?xml version="1.0" encoding="UTF-8" standalone="no"?>
<!DOCTYPE svg PUBLIC "-//W3C//DTD SVG 1.1//EN"
 "http://www.w3.org/Graphics/SVG/1.1/DTD/svg11.dtd">
<!-- Generated by graphviz version 2.36.0 (20140111.2315)
 -->
<!-- Title: G Pages: 1 -->
<svg width="700pt" height="1422pt"
 viewBox="0.00 0.00 700.00 1422.00" xmlns="http://www.w3.org/2000/svg" xmlns:xlink="http://www.w3.org/1999/xlink">
<g id="graph0" class="graph" transform="scale(1 1) rotate(0) translate(4 1418)">
<title>G</title>
<polygon fill="white" stroke="none" points="-4,4 -4,-1418 696,-1418 696,4 -4,4"/>
<g id="clust1" class="cluster"><title>cluster_Global</title>
<path fill="none" stroke="gray" d="M20,-44C20,-44 672,-44 672,-44 678,-44 684,-50 684,-56 684,-56 684,-1394 684,-1394 684,-1400 678,-1406 672,-1406 672,-1406 20,-1406 20,-1406 14,-1406 8,-1400 8,-1394 8,-1394 8,-56 8,-56 8,-50 14,-44 20,-44"/>
<text text-anchor="middle" x="346" y="-1393.2" font-family="Times,serif" font-size="11.00" fill="gray">Global</text>
</g>
<g id="clust2" class="cluster"><title>cluster_\App</title>
<path fill="none" stroke="gray" d="M28,-786C28,-786 651,-786 651,-786 657,-786 663,-792 663,-798 663,-798 663,-1366 663,-1366 663,-1372 657,-1378 651,-1378 651,-1378 28,-1378 28,-1378 22,-1378 16,-1372 16,-1366 16,-1366 16,-798 16,-798 16,-792 22,-786 28,-786"/>
<text text-anchor="middle" x="339.5" y="-1365.2" font-family="Times,serif" font-size="11.00" fill="gray">App</text>
</g>
<g id="clust3" class="cluster"><title>cluster_\App\PHPBasics</title>
<path fill="none" stroke="gray" d="M284,-1224C284,-1224 622,-1224 622,-1224 628,-1224 634,-1230 634,-1236 634,-1236 634,-1338 634,-1338 634,-1344 628,-1350 622,-1350 622,-1350 284,-1350 284,-1350 278,-1350 272,-1344 272,-1338 272,-1338 272,-1236 272,-1236 272,-1230 278,-1224 284,-1224"/>
<text text-anchor="middle" x="453" y="-1337.2" font-family="Times,serif" font-size="11.00" fill="gray">PHPBasics</text>
</g>
<g id="clust4" class="cluster"><title>cluster_\App\InputOutput</title>
<path fill="none" stroke="gray" d="M525,-1090C525,-1090 643,-1090 643,-1090 649,-1090 655,-1096 655,-1102 655,-1102 655,-1204 655,-1204 655,-1210 649,-1216 643,-1216 643,-1216 525,-1216 525,-1216 519,-1216 513,-1210 513,-1204 513,-1204 513,-1102 513,-1102 513,-1096 519,-1090 525,-1090"/>
<text text-anchor="middle" x="584" y="-1203.2" font-family="Times,serif" font-size="11.00" fill="gray">InputOutput</text>
</g>
<g id="clust5" class="cluster"><title>cluster_\App\OOProgramming</title>
<path fill="none" stroke="gray" d="M36,-794C36,-794 636,-794 636,-794 642,-794 648,-800 648,-806 648,-806 648,-1070 648,-1070 648,-1076 642,-1082 636,-1082 636,-1082 36,-1082 36,-1082 30,-1082 24,-1076 24,-1070 24,-1070 24,-806 24,-806 24,-800 30,-794 36,-794"/>
<text text-anchor="middle" x="336" y="-1069.2" font-family="Times,serif" font-size="11.00" fill="gray">OOProgramming</text>
</g>
<g id="clust6" class="cluster"><title>cluster_\Test</title>
<path fill="none" stroke="gray" d="M504,-52C504,-52 664,-52 664,-52 670,-52 676,-58 676,-64 676,-64 676,-766 676,-766 676,-772 670,-778 664,-778 664,-778 504,-778 504,-778 498,-778 492,-772 492,-766 492,-766 492,-64 492,-64 492,-58 498,-52 504,-52"/>
<text text-anchor="middle" x="584" y="-765.2" font-family="Times,serif" font-size="11.00" fill="gray">Test</text>
</g>
<g id="clust7" class="cluster"><title>cluster_\Test\PHPBasics</title>
<path fill="none" stroke="gray" d="M532,-624C532,-624 636,-624 636,-624 642,-624 648,-630 648,-636 648,-636 648,-738 648,-738 648,-744 642,-750 636,-750 636,-750 532,-750 532,-750 526,-750 520,-744 520,-738 520,-738 520,-636 520,-636 520,-630 526,-624 532,-624"/>
<text text-anchor="middle" x="584" y="-737.2" font-family="Times,serif" font-size="11.00" fill="gray">PHPBasics</text>
</g>
<g id="clust8" class="cluster"><title>cluster_\Test\Arrays</title>
<path fill="none" stroke="gray" d="M546,-544C546,-544 622,-544 622,-544 628,-544 634,-550 634,-556 634,-556 634,-604 634,-604 634,-610 628,-616 622,-616 622,-616 546,-616 546,-616 540,-616 534,-610 534,-604 534,-604 534,-556 534,-556 534,-550 540,-544 546,-544"/>
<text text-anchor="middle" x="584" y="-603.2" font-family="Times,serif" font-size="11.00" fill="gray">Arrays</text>
</g>
<g id="clust9" class="cluster"><title>cluster_\Test\InputOutput</title>
<path fill="none" stroke="gray" d="M512,-410C512,-410 656,-410 656,-410 662,-410 668,-416 668,-422 668,-422 668,-524 668,-524 668,-530 662,-536 656,-536 656,-536 512,-536 512,-536 506,-536 500,-530 500,-524 500,-524 500,-422 500,-422 500,-416 506,-410 512,-410"/>
<text text-anchor="middle" x="584" y="-523.2" font-family="Times,serif" font-size="11.00" fill="gray">InputOutput</text>
</g>
<g id="clust10" class="cluster"><title>cluster_\Test\OOProgramming</title>
<path fill="none" stroke="gray" d="M519,-60C519,-60 649,-60 649,-60 655,-60 661,-66 661,-72 661,-72 661,-390 661,-390 661,-396 655,-402 649,-402 649,-402 519,-402 519,-402 513,-402 507,-396 507,-390 507,-390 507,-72 507,-72 507,-66 513,-60 519,-60"/>
<text text-anchor="middle" x="584" y="-389.2" font-family="Times,serif" font-size="11.00" fill="gray">OOProgramming</text>
</g>
<!-- \\App\\PHPBasics\\Mother -->
<g id="node1" class="node"><title>\\App\\PHPBasics\\Mother</title>
<polygon fill="none" stroke="black" points="337.5,-1322 280.5,-1322 280.5,-1286 337.5,-1286 337.5,-1322"/>
<text text-anchor="middle" x="309" y="-1301.2" font-family="Courier,monospace" font-size="11.00">Mother</text>
</g>
<!-- \\App\\PHPBasics\\Daughter -->
<g id="node2" class="node"><title>\\App\\PHPBasics\\Daughter</title>
<polygon fill="none" stroke="black" points="619.5,-1322 548.5,-1322 548.5,-1286 619.5,-1286 619.5,-1322"/>
<text text-anchor="middle" x="584" y="-1301.2" font-family="Courier,monospace" font-size="11.00">Daughter</text>
</g>
<!-- \\App\\PHPBasics\\Daughter&#45;&gt;\\App\\PHPBasics\\Mother -->
<g id="edge1" class="edge"><title>\\App\\PHPBasics\\Daughter&#45;&gt;\\App\\PHPBasics\\Mother</title>
<path fill="none" stroke="black" d="M548.424,-1304C497.041,-1304 400.891,-1304 347.738,-1304"/>
<polygon fill="none" stroke="black" points="347.707,-1300.5 337.707,-1304 347.707,-1307.5 347.707,-1300.5"/>
</g>
<!-- \\App\\PHPBasics\\BasicStuff -->
<g id="node3" class="node"><title>\\App\\PHPBasics\\BasicStuff</title>
<polygon fill="none" stroke="black" points="626,-1268 542,-1268 542,-1232 626,-1232 626,-1268"/>
<text text-anchor="middle" x="584" y="-1247.2" font-family="Courier,monospace" font-size="11.00">BasicStuff</text>
</g>
<!-- \\App\\InputOutput\\ResourceStream -->
<g id="node4" class="node"><title>\\App\\InputOutput\\ResourceStream</title>
<polygon fill="none" stroke="black" points="639.5,-1188 528.5,-1188 528.5,-1152 639.5,-1152 639.5,-1188"/>
<text text-anchor="middle" x="584" y="-1167.2" font-family="Courier,monospace" font-size="11.00">ResourceStream</text>
</g>
<!-- \\App\\InputOutput\\FileManipulation -->
<g id="node5" class="node"><title>\\App\\InputOutput\\FileManipulation</title>
<polygon fill="none" stroke="black" points="646.5,-1134 521.5,-1134 521.5,-1098 646.5,-1098 646.5,-1134"/>
<text text-anchor="middle" x="584" y="-1113.2" font-family="Courier,monospace" font-size="11.00">FileManipulation</text>
</g>
<!-- \\App\\OOProgramming\\ClosuresToBind -->
<g id="node6" class="node"><title>\\App\\OOProgramming\\ClosuresToBind</title>
<polygon fill="none" stroke="black" points="639.5,-1054 528.5,-1054 528.5,-1018 639.5,-1018 639.5,-1054"/>
<text text-anchor="middle" x="584" y="-1033.2" font-family="Courier,monospace" font-size="11.00">ClosuresToBind</text>
</g>
<!-- \\App\\OOProgramming\\MagicMethods -->
<g id="node7" class="node"><title>\\App\\OOProgramming\\MagicMethods</title>
<polygon fill="none" stroke="black" points="633,-1000 535,-1000 535,-964 633,-964 633,-1000"/>
<text text-anchor="middle" x="584" y="-979.2" font-family="Courier,monospace" font-size="11.00">MagicMethods</text>
</g>
<!-- \\App\\OOProgramming\\OODaughter -->
<g id="node8" class="node"><title>\\App\\OOProgramming\\OODaughter</title>
<polygon fill="none" stroke="black" points="626,-946 542,-946 542,-910 626,-910 626,-946"/>
<text text-anchor="middle" x="584" y="-925.2" font-family="Courier,monospace" font-size="11.00">OODaughter</text>
</g>
<!-- \\App\\OOProgramming\\OOMother -->
<g id="node12" class="node"><title>\\App\\OOProgramming\\OOMother</title>
<polygon fill="none" stroke="black" points="344.5,-946 273.5,-946 273.5,-910 344.5,-910 344.5,-946"/>
<text text-anchor="middle" x="309" y="-925.2" font-family="Courier,monospace" font-size="11.00">OOMother</text>
</g>
<!-- \\App\\OOProgramming\\OODaughter&#45;&gt;\\App\\OOProgramming\\OOMother -->
<g id="edge2" class="edge"><title>\\App\\OOProgramming\\OODaughter&#45;&gt;\\App\\OOProgramming\\OOMother</title>
<path fill="none" stroke="black" d="M541.834,-928C491.527,-928 406.713,-928 354.806,-928"/>
<polygon fill="none" stroke="black" points="354.569,-924.5 344.569,-928 354.569,-931.5 354.569,-924.5"/>
</g>
<!-- \\App\\OOProgramming\\Closures -->
<g id="node9" class="node"><title>\\App\\OOProgramming\\Closures</title>
<polygon fill="none" stroke="black" points="619.5,-892 548.5,-892 548.5,-856 619.5,-856 619.5,-892"/>
<text text-anchor="middle" x="584" y="-871.2" font-family="Courier,monospace" font-size="11.00">Closures</text>
</g>
<!-- \\App\\OOProgramming\\OOGrandMa -->
<g id="node10" class="node"><title>\\App\\OOProgramming\\OOGrandMa</title>
<polygon fill="none" stroke="black" points="109.5,-946 32.5,-946 32.5,-910 109.5,-910 109.5,-946"/>
<text text-anchor="middle" x="71" y="-925.2" font-family="Courier,monospace" font-size="11.00">OOGrandMa</text>
</g>
<!-- \\App\\OOProgramming\\Reflecting -->
<g id="node11" class="node"><title>\\App\\OOProgramming\\Reflecting</title>
<polygon fill="none" stroke="black" points="626,-838 542,-838 542,-802 626,-802 626,-838"/>
<text text-anchor="middle" x="584" y="-817.2" font-family="Courier,monospace" font-size="11.00">Reflecting</text>
</g>
<!-- \\App\\OOProgramming\\OOMother&#45;&gt;\\App\\OOProgramming\\OOGrandMa -->
<g id="edge3" class="edge"><title>\\App\\OOProgramming\\OOMother&#45;&gt;\\App\\OOProgramming\\OOGrandMa</title>
<path fill="none" stroke="black" d="M273.431,-928C232.928,-928 165.574,-928 120.015,-928"/>
<polygon fill="none" stroke="black" points="119.788,-924.5 109.788,-928 119.788,-931.5 119.788,-924.5"/>
</g>
<!-- \\Test\\PHPBasics\\BasicStuffTest -->
<g id="node13" class="node"><title>\\Test\\PHPBasics\\BasicStuffTest</title>
<polygon fill="none" stroke="black" points="639.5,-722 528.5,-722 528.5,-686 639.5,-686 639.5,-722"/>
<text text-anchor="middle" x="584" y="-701.2" font-family="Courier,monospace" font-size="11.00">BasicStuffTest</text>
</g>
<!-- \\PHPUnit_Framework_TestCase -->
<g id="node24" class="node"><title>\\PHPUnit_Framework_TestCase</title>
<ellipse fill="none" stroke="black" cx="309" cy="-18" rx="126.978" ry="18"/>
<text text-anchor="middle" x="309" y="-14.3" font-family="Times,serif" font-size="14.00" fill="gray">\PHPUnit_Framework_TestCase</text>
</g>
<!-- \\Test\\PHPBasics\\BasicStuffTest&#45;&gt;\\PHPUnit_Framework_TestCase -->
<g id="edge4" class="edge"><title>\\Test\\PHPBasics\\BasicStuffTest&#45;&gt;\\PHPUnit_Framework_TestCase</title>
<path fill="none" stroke="black" d="M528.093,-697.194C514.825,-693.184 501.695,-686.881 492,-677 400.094,-583.334 331.173,-159.83 314.097,-46.1553"/>
<polygon fill="none" stroke="black" points="317.541,-45.5191 312.608,-36.1431 310.618,-46.5494 317.541,-45.5191"/>
</g>
<!-- \\Test\\PHPBasics\\DaughterTest -->
<g id="node14" class="node"><title>\\Test\\PHPBasics\\DaughterTest</title>
<polygon fill="none" stroke="black" points="633,-668 535,-668 535,-632 633,-632 633,-668"/>
<text text-anchor="middle" x="584" y="-647.2" font-family="Courier,monospace" font-size="11.00">DaughterTest</text>
</g>
<!-- \\Test\\PHPBasics\\DaughterTest&#45;&gt;\\PHPUnit_Framework_TestCase -->
<g id="edge5" class="edge"><title>\\Test\\PHPBasics\\DaughterTest&#45;&gt;\\PHPUnit_Framework_TestCase</title>
<path fill="none" stroke="black" d="M534.805,-643.159C519.387,-638.801 503.383,-631.67 492,-620 328.093,-451.966 311.126,-141.596 309.896,-46.4631"/>
<polygon fill="none" stroke="black" points="313.394,-46.1699 309.816,-36.1976 306.395,-46.2247 313.394,-46.1699"/>
</g>
<!-- \\Test\\Arrays\\ArraysTest -->
<g id="node15" class="node"><title>\\Test\\Arrays\\ArraysTest</title>
<polygon fill="none" stroke="black" points="626,-588 542,-588 542,-552 626,-552 626,-588"/>
<text text-anchor="middle" x="584" y="-567.2" font-family="Courier,monospace" font-size="11.00">ArraysTest</text>
</g>
<!-- \\Test\\Arrays\\ArraysTest&#45;&gt;\\PHPUnit_Framework_TestCase -->
<g id="edge6" class="edge"><title>\\Test\\Arrays\\ArraysTest&#45;&gt;\\PHPUnit_Framework_TestCase</title>
<path fill="none" stroke="black" d="M541.624,-564.6C524.365,-560.436 505.286,-553.062 492,-540 346.951,-397.4 317.328,-133.144 311.428,-46.3981"/>
<polygon fill="none" stroke="black" points="314.912,-46.0271 310.794,-36.2653 307.925,-46.4644 314.912,-46.0271"/>
</g>
<!-- \\Test\\InputOutput\\ResourceStreamTest -->
<g id="node16" class="node"><title>\\Test\\InputOutput\\ResourceStreamTest</title>
<polygon fill="none" stroke="black" points="653,-508 515,-508 515,-472 653,-472 653,-508"/>
<text text-anchor="middle" x="584" y="-487.2" font-family="Courier,monospace" font-size="11.00">ResourceStreamTest</text>
</g>
<!-- \\Test\\InputOutput\\ResourceStreamTest&#45;&gt;\\PHPUnit_Framework_TestCase -->
<g id="edge7" class="edge"><title>\\Test\\InputOutput\\ResourceStreamTest&#45;&gt;\\PHPUnit_Framework_TestCase</title>
<path fill="none" stroke="black" d="M514.764,-477.25C506.462,-473.624 498.598,-468.971 492,-463 363.137,-346.396 323.497,-125.108 313.188,-46.5463"/>
<polygon fill="none" stroke="black" points="316.637,-45.9215 311.921,-36.434 309.691,-46.7914 316.637,-45.9215"/>
</g>
<!-- \\Test\\InputOutput\\FileManipulationTest -->
<g id="node17" class="node"><title>\\Test\\InputOutput\\FileManipulationTest</title>
<polygon fill="none" stroke="black" points="660,-454 508,-454 508,-418 660,-418 660,-454"/>
<text text-anchor="middle" x="584" y="-433.2" font-family="Courier,monospace" font-size="11.00">FileManipulationTest</text>
</g>
<!-- \\Test\\InputOutput\\FileManipulationTest&#45;&gt;\\PHPUnit_Framework_TestCase -->
<g id="edge8" class="edge"><title>\\Test\\InputOutput\\FileManipulationTest&#45;&gt;\\PHPUnit_Framework_TestCase</title>
<path fill="none" stroke="black" d="M509.504,-417.874C503.19,-414.556 497.228,-410.635 492,-406 377.878,-304.828 329.828,-116.921 315.207,-46.0374"/>
<polygon fill="none" stroke="black" points="318.608,-45.1937 313.215,-36.0738 311.744,-46.5659 318.608,-45.1937"/>
</g>
<!-- \\Test\\OOProgramming\\OODaughterTest -->
<g id="node18" class="node"><title>\\Test\\OOProgramming\\OODaughterTest</title>
<polygon fill="none" stroke="black" points="639.5,-374 528.5,-374 528.5,-338 639.5,-338 639.5,-374"/>
<text text-anchor="middle" x="584" y="-353.2" font-family="Courier,monospace" font-size="11.00">OODaughterTest</text>
</g>
<!-- \\Test\\OOProgramming\\OODaughterTest&#45;&gt;\\PHPUnit_Framework_TestCase -->
<g id="edge9" class="edge"><title>\\Test\\OOProgramming\\OODaughterTest&#45;&gt;\\PHPUnit_Framework_TestCase</title>
<path fill="none" stroke="black" d="M528.293,-346.944C515.473,-342.962 502.505,-337.235 492,-329 394.031,-252.197 338.401,-106.888 318.482,-45.9758"/>
<polygon fill="none" stroke="black" points="321.762,-44.7402 315.383,-36.2812 315.095,-46.8721 321.762,-44.7402"/>
</g>
<!-- \\Test\\OOProgramming\\ClosuresToBindTest -->
<g id="node19" class="node"><title>\\Test\\OOProgramming\\ClosuresToBindTest</title>
<polygon fill="none" stroke="black" points="653,-320 515,-320 515,-284 653,-284 653,-320"/>
<text text-anchor="middle" x="584" y="-299.2" font-family="Courier,monospace" font-size="11.00">ClosuresToBindTest</text>
</g>
<!-- \\Test\\OOProgramming\\ClosuresToBindTest&#45;&gt;\\PHPUnit_Framework_TestCase -->
<g id="edge10" class="edge"><title>\\Test\\OOProgramming\\ClosuresToBindTest&#45;&gt;\\PHPUnit_Framework_TestCase</title>
<path fill="none" stroke="black" d="M514.54,-287.202C506.555,-283.909 498.833,-279.894 492,-275 405.979,-213.391 346.006,-98.0592 321.857,-45.4383"/>
<polygon fill="none" stroke="black" points="324.938,-43.755 317.637,-36.0768 318.556,-46.6317 324.938,-43.755"/>
</g>
<!-- \\Test\\OOProgramming\\ReflectingTest -->
<g id="node20" class="node"><title>\\Test\\OOProgramming\\ReflectingTest</title>
<polygon fill="none" stroke="black" points="639.5,-266 528.5,-266 528.5,-230 639.5,-230 639.5,-266"/>
<text text-anchor="middle" x="584" y="-245.2" font-family="Courier,monospace" font-size="11.00">ReflectingTest</text>
</g>
<!-- \\Test\\OOProgramming\\ReflectingTest&#45;&gt;\\PHPUnit_Framework_TestCase -->
<g id="edge11" class="edge"><title>\\Test\\OOProgramming\\ReflectingTest&#45;&gt;\\PHPUnit_Framework_TestCase</title>
<path fill="none" stroke="black" d="M528.427,-237.11C515.879,-233.197 503.001,-227.961 492,-221 417.502,-173.861 355.068,-87.8606 326.578,-44.4979"/>
<polygon fill="none" stroke="black" points="329.396,-42.4108 321.022,-35.9212 323.522,-46.2169 329.396,-42.4108"/>
</g>
<!-- \\Test\\OOProgramming\\MagicMethodsTest -->
<g id="node21" class="node"><title>\\Test\\OOProgramming\\MagicMethodsTest</title>
<polygon fill="none" stroke="black" points="646.5,-212 521.5,-212 521.5,-176 646.5,-176 646.5,-212"/>
<text text-anchor="middle" x="584" y="-191.2" font-family="Courier,monospace" font-size="11.00">MagicMethodsTest</text>
</g>
<!-- \\Test\\OOProgramming\\MagicMethodsTest&#45;&gt;\\PHPUnit_Framework_TestCase -->
<g id="edge12" class="edge"><title>\\Test\\OOProgramming\\MagicMethodsTest&#45;&gt;\\PHPUnit_Framework_TestCase</title>
<path fill="none" stroke="black" d="M521.464,-179.389C511.344,-175.964 501.174,-171.861 492,-167 428.863,-133.548 367.011,-76.2181 334.182,-43.2779"/>
<polygon fill="none" stroke="black" points="336.373,-40.515 326.86,-35.8507 331.388,-45.4293 336.373,-40.515"/>
</g>
<!-- \\Test\\OOProgramming\\OOMotherTest -->
<g id="node22" class="node"><title>\\Test\\OOProgramming\\OOMotherTest</title>
<polygon fill="none" stroke="black" points="633,-158 535,-158 535,-122 633,-122 633,-158"/>
<text text-anchor="middle" x="584" y="-137.2" font-family="Courier,monospace" font-size="11.00">OOMotherTest</text>
</g>
<!-- \\Test\\OOProgramming\\OOMotherTest&#45;&gt;\\PHPUnit_Framework_TestCase -->
<g id="edge13" class="edge"><title>\\Test\\OOProgramming\\OOMotherTest&#45;&gt;\\PHPUnit_Framework_TestCase</title>
<path fill="none" stroke="black" d="M534.704,-127.549C520.735,-123.445 505.594,-118.505 492,-113 440.529,-92.1578 384.299,-61.4987 348.166,-40.6908"/>
<polygon fill="none" stroke="black" points="349.835,-37.6124 339.428,-35.6249 346.324,-43.6683 349.835,-37.6124"/>
</g>
<!-- \\Test\\OOProgramming\\ClosuresTest -->
<g id="node23" class="node"><title>\\Test\\OOProgramming\\ClosuresTest</title>
<polygon fill="none" stroke="black" points="633,-104 535,-104 535,-68 633,-68 633,-104"/>
<text text-anchor="middle" x="584" y="-83.2" font-family="Courier,monospace" font-size="11.00">ClosuresTest</text>
</g>
<!-- \\Test\\OOProgramming\\ClosuresTest&#45;&gt;\\PHPUnit_Framework_TestCase -->
<g id="edge14" class="edge"><title>\\Test\\OOProgramming\\ClosuresTest&#45;&gt;\\PHPUnit_Framework_TestCase</title>
<path fill="none" stroke="black" d="M534.822,-73.9995C492.576,-63.4767 430.55,-48.0271 382.343,-36.0196"/>
<polygon fill="none" stroke="black" points="383.137,-32.6104 372.588,-33.5896 381.445,-39.4029 383.137,-32.6104"/>
</g>
</g>
</svg>
